<svg width="76" height="86" viewBox="0 0 76 86" fill="none" xmlns="http://www.w3.org/2000/svg">
<path d="M62.6037 25.3691C62.6037 11.7227 51.5471 0.666016 37.9006 0.666016C24.2541 0.666016 13.1975 11.7227 13.1975 25.3691C13.1975 33.6168 17.2416 40.9281 23.4572 45.4105C23.4174 45.4305 23.3875 45.4404 23.3676 45.4504C18.915 47.333 14.9207 50.0324 11.4842 53.4789C8.04767 56.9154 5.35821 60.9197 3.47559 65.3822C1.63282 69.7451 0.646687 74.377 0.547078 79.1383C0.537117 79.5865 0.89571 79.9551 1.34395 79.9551H7.31055C7.73888 79.9551 8.09747 79.6064 8.10743 79.1781C8.30665 71.4883 11.3846 64.2865 16.8332 58.8279C22.4611 53.1801 29.9319 50.0723 37.9006 50.0723C51.5471 50.0723 62.6037 39.0156 62.6037 25.3691ZM37.9006 42.502C28.4377 42.502 20.7678 34.832 20.7678 25.3691C20.7678 15.9062 28.4377 8.23633 37.9006 8.23633C47.3635 8.23633 55.0334 15.9062 55.0334 25.3691C55.0334 34.832 47.3635 42.502 37.9006 42.502ZM48.3596 64.5156H74.6565C75.0947 64.5156 75.4533 64.157 75.4533 63.7188V58.1406C75.4533 57.7023 75.0947 57.3438 74.6565 57.3438H57.0754L61.777 51.3572C61.8865 51.2178 61.9463 51.0385 61.9463 50.8691C61.9463 50.4309 61.5877 50.0723 61.1494 50.0723H53.9178C53.4297 50.0723 52.9715 50.3014 52.6627 50.6799L45.8395 59.3559C45.4012 59.9137 45.1621 60.6109 45.1621 61.3281C45.1721 63.0912 46.5965 64.5156 48.3596 64.5156ZM72.2658 70.8906H45.969C45.5307 70.8906 45.1721 71.2492 45.1721 71.6875V77.2656C45.1721 77.7039 45.5307 78.0625 45.969 78.0625H63.55L58.8484 84.049C58.7389 84.1885 58.6791 84.3678 58.6791 84.5371C58.6791 84.9754 59.0377 85.334 59.476 85.334H66.7076C67.1957 85.334 67.6539 85.1049 67.9627 84.7264L74.7859 76.0504C75.2242 75.4926 75.4633 74.7953 75.4633 74.0781C75.4533 72.315 74.0289 70.8906 72.2658 70.8906Z" fill="url(#paint0_linear_336_423)"/>
<path d="M62.6037 25.3691C62.6037 11.7227 51.5471 0.666016 37.9006 0.666016C24.2541 0.666016 13.1975 11.7227 13.1975 25.3691C13.1975 33.6168 17.2416 40.9281 23.4572 45.4105C23.4174 45.4305 23.3875 45.4404 23.3676 45.4504C18.915 47.333 14.9207 50.0324 11.4842 53.4789C8.04767 56.9154 5.35821 60.9197 3.47559 65.3822C1.63282 69.7451 0.646687 74.377 0.547078 79.1383C0.537117 79.5865 0.89571 79.9551 1.34395 79.9551H7.31055C7.73888 79.9551 8.09747 79.6064 8.10743 79.1781C8.30665 71.4883 11.3846 64.2865 16.8332 58.8279C22.4611 53.1801 29.9319 50.0723 37.9006 50.0723C51.5471 50.0723 62.6037 39.0156 62.6037 25.3691ZM37.9006 42.502C28.4377 42.502 20.7678 34.832 20.7678 25.3691C20.7678 15.9062 28.4377 8.23633 37.9006 8.23633C47.3635 8.23633 55.0334 15.9062 55.0334 25.3691C55.0334 34.832 47.3635 42.502 37.9006 42.502ZM48.3596 64.5156H74.6565C75.0947 64.5156 75.4533 64.157 75.4533 63.7188V58.1406C75.4533 57.7023 75.0947 57.3438 74.6565 57.3438H57.0754L61.777 51.3572C61.8865 51.2178 61.9463 51.0385 61.9463 50.8691C61.9463 50.4309 61.5877 50.0723 61.1494 50.0723H53.9178C53.4297 50.0723 52.9715 50.3014 52.6627 50.6799L45.8395 59.3559C45.4012 59.9137 45.1621 60.6109 45.1621 61.3281C45.1721 63.0912 46.5965 64.5156 48.3596 64.5156ZM72.2658 70.8906H45.969C45.5307 70.8906 45.1721 71.2492 45.1721 71.6875V77.2656C45.1721 77.7039 45.5307 78.0625 45.969 78.0625H63.55L58.8484 84.049C58.7389 84.1885 58.6791 84.3678 58.6791 84.5371C58.6791 84.9754 59.0377 85.334 59.476 85.334H66.7076C67.1957 85.334 67.6539 85.1049 67.9627 84.7264L74.7859 76.0504C75.2242 75.4926 75.4633 74.7953 75.4633 74.0781C75.4533 72.315 74.0289 70.8906 72.2658 70.8906Z" fill="black" fill-opacity="0.2"/>
<defs>
<linearGradient id="paint0_linear_336_423" x1="38.0051" y1="0.666016" x2="38.0051" y2="88.509" gradientUnits="userSpaceOnUse">
<stop stop-color="#FF5D46"/>
<stop offset="1" stop-color="#FDB658"/>
</linearGradient>
</defs>
</svg>
