<svg width="20" height="20" viewBox="0 0 20 20" fill="none" xmlns="http://www.w3.org/2000/svg">
<path d="M19.313 13.0637L14.0032 10L19.313 6.93633C19.6122 6.76367 19.7145 6.38164 19.5419 6.08242L18.2911 3.91719C18.1185 3.61836 17.736 3.51562 17.4368 3.68828L12.127 6.75195V0.625C12.127 0.279687 11.847 0 11.5017 0H9.0001C8.65479 0 8.37471 0.279687 8.37471 0.625V6.75234L3.06495 3.68867C2.76573 3.51602 2.38331 3.61875 2.21065 3.91758L0.959872 6.08242C0.787215 6.38125 0.889559 6.76367 1.18878 6.93633L6.49854 10L1.18878 13.0637C0.889559 13.2363 0.787215 13.6188 0.959872 13.9176L2.21065 16.0828C2.38331 16.3816 2.76573 16.484 3.06495 16.3117L8.37471 13.248V19.375C8.37471 19.7203 8.65479 20 9.0001 20H11.5017C11.847 20 12.127 19.7203 12.127 19.375V13.2477L17.4368 16.3113C17.736 16.484 18.1185 16.3816 18.2911 16.0824L19.5419 13.9172C19.7145 13.6184 19.6122 13.2363 19.313 13.0637Z" fill="#FDB658"/>
</svg>
